# xmcd CD database file
#
# Track frame offsets:
#	150
#	12878
#	35377
#	61199
#	88935
#	119931
#	135206
#	150814
#	173252
#	192371
#	207151
#	219601
#	233001
#	250098
#	272981
#
# Disc length: 3781 seconds
#
# Revision: 6
# Processed by: cddbd v1.5.2PL0 Copyright (c) Steve Scherf et al.
# Submitted via: CDex 1.70beta2
#
DISCID=c30ec30f
DTITLE=B.B. King - Forevergold - Giant Of Blues
DYEAR=2005
DGENRE=Blues
TTITLE0=Please Love Me
TTITLE1=The Thrill Is Gone
TTITLE2=Guess Who
TTITLE3=Payin' The Cost To Be The Boss
TTITLE4=Outside Help
TTITLE5=How Blue Can You Get
TTITLE6=The Letter
TTITLE7=Everyday I Have The Blues
TTITLE8=Sweet Sixteen
TTITLE9=Precious Lord
TTITLE10=I'm Working On The Building
TTITLE11=Servant's Prayer
TTITLE12=Evil Child
TTITLE13=You've Done Lost Your Good Thing Now
TTITLE14=Catfish Blues
EXTD=YEAR: 2005
EXTT0=
EXTT1=
EXTT2=
EXTT3=
EXTT4=
EXTT5=
EXTT6=
EXTT7=
EXTT8=
EXTT9=
EXTT10=
EXTT11=
EXTT12=
EXTT13=
EXTT14=
PLAYORDER=
